<svg xmlns="http://www.w3.org/2000/svg" viewBox="0 0 512 512" role="img" aria-label="AI HQ">
  <defs>
    <linearGradient id="bg" x1="0" y1="0" x2="0" y2="1">
      <stop offset="0" stop-color="#232c52"/>
      <stop offset="1" stop-color="#121328"/>
    </linearGradient>
    <radialGradient id="glow" cx="0.5" cy="0.5" r="0.5">
      <stop offset="0" stop-color="#ffcd5a" stop-opacity="0.9"/>
      <stop offset="1" stop-color="#ffcd5a" stop-opacity="0"/>
    </radialGradient>
  </defs>
  <rect x="0" y="0" width="512" height="512" rx="112" fill="url(#bg)"/>
  <!-- beacon -->
  <circle cx="256" cy="84" r="52" fill="url(#glow)"/>
  <rect x="253" y="84" width="6" height="60" fill="#4054a0"/>
  <circle cx="256" cy="84" r="15" fill="#ffcd5a"/>
  <!-- tower -->
  <rect x="148" y="143" width="216" height="292" fill="#2f3e6b"/>
  <rect x="148" y="143" width="18" height="292" fill="#4054a0"/>
  <rect x="346" y="143" width="18" height="292" fill="#1f2a4e"/>
  <rect x="148" y="143" width="216" height="13" fill="#4054a0"/>
  <!-- windows: b=blue g=gold .=off -->
  <g>
    <rect x="182" y="182" width="40" height="34" fill="#5b8cff"/>
    <rect x="236" y="182" width="40" height="34" fill="#181e38"/>
    <rect x="290" y="182" width="40" height="34" fill="#5b8cff"/>
    <rect x="182" y="238" width="40" height="34" fill="#ffbe4a"/>
    <rect x="236" y="238" width="40" height="34" fill="#5b8cff"/>
    <rect x="290" y="238" width="40" height="34" fill="#5b8cff"/>
    <rect x="182" y="294" width="40" height="34" fill="#5b8cff"/>
    <rect x="236" y="294" width="40" height="34" fill="#5b8cff"/>
    <rect x="290" y="294" width="40" height="34" fill="#181e38"/>
    <rect x="182" y="350" width="40" height="34" fill="#5b8cff"/>
    <rect x="236" y="350" width="40" height="34" fill="#ffbe4a"/>
    <rect x="290" y="350" width="40" height="34" fill="#5b8cff"/>
  </g>
  <!-- doorway -->
  <rect x="233" y="399" width="46" height="36" fill="#7896dc"/>
  <rect x="245" y="399" width="22" height="36" fill="#5b76b0"/>
</svg>
